<?xml version="1.0" standalone="no"?><!DOCTYPE svg PUBLIC "-//W3C//DTD SVG 1.1//EN" "http://www.w3.org/Graphics/SVG/1.1/DTD/svg11.dtd"><svg t="1539158900358" class="icon" style="" viewBox="0 0 1024 1024" version="1.1" xmlns="http://www.w3.org/2000/svg" p-id="1289" xmlns:xlink="http://www.w3.org/1999/xlink" width="350" height="350"><defs><style type="text/css"></style></defs><path d="M673.736 616.369c-32.646-32.646-70.668-58.278-113.013-76.188-4.332-1.833-8.699-3.55-13.083-5.203 56.658-40.77 93.558-107.275 93.558-182.406 0-124.033-100.548-224.581-224.58-224.581-124.033 0-224.581 100.548-224.581 224.581 0 76.911 38.67 144.781 97.619 185.258-1.922 0.774-3.846 1.543-5.758 2.352-42.345 17.91-80.368 43.543-113.013 76.188-32.645 32.645-58.278 70.667-76.188 113.012-18.55 43.856-27.955 90.426-27.955 138.413 0 17.221 13.96 31.181 31.181 31.181s31.181-13.96 31.181-31.181c0-152.001 116.267-277.346 264.536-291.803a227.167 227.167 0 0 0 50.908-0.567C595.874 586.826 715.519 713.6 715.519 867.794c0 17.221 13.96 31.181 31.181 31.181s31.182-13.96 31.182-31.181c0-47.987-9.406-94.557-27.956-138.413-17.911-42.345-43.545-80.367-76.19-113.012zM256.049 352.571c0-88.68 71.889-160.569 160.569-160.569 88.68 0 160.568 71.89 160.568 160.569 0 83.376-63.549 151.903-144.851 159.803a363.448 363.448 0 0 0-10.025-0.149c-6.038 0-12.053 0.15-18.043 0.448-82.909-6.307-148.218-75.578-148.218-160.102z" p-id="1290" fill="#BFCBD9"></path><path d="M844.347 533.964c31.856-29.248 51.86-71.212 51.86-117.766 0-88.164-71.726-159.89-159.889-159.89-17.612 0-31.89 14.277-31.89 31.89s14.277 31.89 31.89 31.89c52.995 0 96.109 43.115 96.109 96.11s-43.114 96.11-96.109 96.11c-17.612 0-31.89 14.277-31.89 31.89s14.277 31.89 31.89 31.89c3.643 0 7.254-0.134 10.836-0.375 1.598 0.246 3.233 0.375 4.899 0.375 79.431 0 144.052 64.621 144.052 144.052 0 17.612 14.277 31.89 31.89 31.89s31.89-14.277 31.89-31.89c0-81.467-47.124-152.123-115.538-186.176z" p-id="1291" fill="#BFCBD9"></path></svg>