<?xml version="1.0" standalone="no"?><!DOCTYPE svg PUBLIC "-//W3C//DTD SVG 1.1//EN" "http://www.w3.org/Graphics/SVG/1.1/DTD/svg11.dtd"><svg t="1539158403511" class="icon" style="" viewBox="0 0 1024 1024" version="1.1" xmlns="http://www.w3.org/2000/svg" p-id="1778" xmlns:xlink="http://www.w3.org/1999/xlink" width="350" height="350"><defs><style type="text/css"></style></defs><path d="M810.666667 128H469.333333a85.333333 85.333333 0 0 0-85.333333 85.333333v42.666667h-170.666667a85.333333 85.333333 0 0 0-85.333333 85.333333v469.333334a85.333333 85.333333 0 0 0 85.333333 85.333333h341.333334a85.333333 85.333333 0 0 0 85.333333-85.333333v-42.666667h170.666667a85.333333 85.333333 0 0 0 85.333333-85.333333V213.333333a85.333333 85.333333 0 0 0-85.333333-85.333333zM576 810.666667c0 11.754667-9.578667 21.333333-21.333333 21.333333H213.333333c-11.754667 0-21.333333-9.578667-21.333333-21.333333V341.333333c0-11.754667 9.578667-21.333333 21.333333-21.333333h341.333334c11.754667 0 21.333333 9.578667 21.333333 21.333333v469.333334z m256-128c0 11.754667-9.578667 21.333333-21.333333 21.333333h-170.666667V341.333333a85.333333 85.333333 0 0 0-85.333333-85.333333h-106.666667v-42.666667c0-11.754667 9.578667-21.333333 21.333333-21.333333h341.333334c11.754667 0 21.333333 9.578667 21.333333 21.333333v469.333334z" fill="#BFCBD9" p-id="1779"></path></svg>