<?xml version="1.0" standalone="no"?><!DOCTYPE svg PUBLIC "-//W3C//DTD SVG 1.1//EN" "http://www.w3.org/Graphics/SVG/1.1/DTD/svg11.dtd"><svg t="1539158599384" class="icon" style="" viewBox="0 0 1024 1024" version="1.1" xmlns="http://www.w3.org/2000/svg" p-id="2282" xmlns:xlink="http://www.w3.org/1999/xlink" width="350" height="350"><defs><style type="text/css"></style></defs><path d="M810.666667 277.738667V213.333333a85.333333 85.333333 0 0 0-85.333334-85.333333H298.666667a85.333333 85.333333 0 0 0-85.333334 85.333333v213.738667a85.333333 85.333333 0 0 0-85.333333 85.333333V810.666667a85.333333 85.333333 0 0 0 85.333333 85.333333h597.333334a85.333333 85.333333 0 0 0 85.333333-85.333333V363.072a85.333333 85.333333 0 0 0-85.333333-85.333333zM277.333333 213.333333c0-11.754667 9.578667-21.333333 21.333334-21.333333h426.666666c11.754667 0 21.333333 9.578667 21.333334 21.333333v64.405334h-212.693334a43.306667 43.306667 0 0 0-43.306666 43.306666v99.626667a6.4 6.4 0 0 1-6.4 6.4H277.333333V213.333333z m554.666667 597.333334a21.333333 21.333333 0 0 1-21.333333 21.333333H213.333333a21.333333 21.333333 0 0 1-21.333333-21.333333V512.405333a21.333333 21.333333 0 0 1 21.333333-21.333333h298.026667a43.306667 43.306667 0 0 0 43.306667-43.306667v-99.584c0-3.562667 2.88-6.442667 6.442666-6.442666H810.666667c11.754667 0 21.333333 9.578667 21.333333 21.333333V810.666667z" fill="#BFCBD9" p-id="2283"></path></svg>