<?xml version="1.0" standalone="no"?><!DOCTYPE svg PUBLIC "-//W3C//DTD SVG 1.1//EN" "http://www.w3.org/Graphics/SVG/1.1/DTD/svg11.dtd"><svg t="1540176715035" class="icon" style="" viewBox="0 0 1024 1024" version="1.1" xmlns="http://www.w3.org/2000/svg" p-id="1518" xmlns:xlink="http://www.w3.org/1999/xlink" width="400" height="400"><defs><style type="text/css"></style></defs><path d="M872.803 755.994h0.061v-0.37zM641.612 478.465h-263.05c-18.447 0-33.352 13.225-33.352 29.515 0 16.306 14.905 29.545 33.352 29.545h263.05c18.418 0 33.384-13.24 33.384-29.545 0-16.29-14.908-29.515-33.384-29.515" fill="#BFCBD9" p-id="1519"></path><path d="M512.007 94.662c-228.164 0-413.795 158.927-413.795 354.273 0 99.213 49.57 192.906 136.969 260.893l101.667 78.787c-3.004 16.778-15.917 56.112-30.527 92.116-4.582 11.16-1.845 23.98 6.785 32.34 5.623 5.446 13.061 8.302 20.589 8.302 4.046 0 8.123-0.832 12.02-2.528 33.68-14.998 115.68-55.043 173.285-115.92 224.934-3.244 406.786-160.638 406.786-353.99 0-195.346-185.6-354.273-413.78-354.273m-1.574 650.214c-1.847 0-1.847 0.03-3.572 0.326-12.734 1.457-28.682 18.656-28.682 18.656s-52.635 52.692-96.759 77.746c16.097-53.705 13.27-73.489 8.123-81.14-1.279-1.991-2.707-3.508-4.432-4.67l0.118-0.058s-0.416-0.209-1.13-0.595c-0.387-0.238-0.774-0.417-1.19-0.656-13.45-7.2-83.339-46.056-140.169-100.506-55.102-57.871-85.422-135.468-85.422-205.045 0-162.78 159.122-295.227 354.69-295.227 195.567 0 354.688 132.447 354.688 295.227 0 162.794-160.696 295.942-356.263 295.942" fill="#BFCBD9" p-id="1520"></path><path d="M645.45 360.375H378.563c-18.447 0-33.383 13.224-33.383 29.515 0 16.304 14.936 29.53 33.383 29.53h266.889c18.478 0 33.353-13.226 33.353-29.53 0-16.291-14.875-29.515-33.353-29.515" fill="#BFCBD9" p-id="1521"></path></svg>