<?xml version="1.0" standalone="no"?><!DOCTYPE svg PUBLIC "-//W3C//DTD SVG 1.1//EN" "http://www.w3.org/Graphics/SVG/1.1/DTD/svg11.dtd"><svg t="1539158983215" class="icon" style="" viewBox="0 0 1024 1024" version="1.1" xmlns="http://www.w3.org/2000/svg" p-id="1308" xmlns:xlink="http://www.w3.org/1999/xlink" width="350" height="350"><defs><style type="text/css"></style></defs><path d="M1024.6 877.1V575.2h-29.5v301.9c0 56.8-46.3 103.1-103.1 103.1H161.1c-72.1 0-130.7-58.6-130.7-130.7V575.2H0.9v274.3c0 88.3 71.9 160.2 160.2 160.2H892c73.1 0 132.6-59.5 132.6-132.6zM274.2 240.6c-5.8 5.7-6 15-0.3 20.8 2.9 3 6.7 4.5 10.6 4.5 3.7 0 7.4-1.4 10.2-4.1l218.1-211 218.1 211c2.8 2.8 6.6 4.1 10.2 4.1 3.9 0 7.7-1.5 10.6-4.5 5.7-5.8 5.5-15.2-0.3-20.8L523 19.6c-0.7-0.7-1.6-1-2.4-1.5-0.8-0.5-1.5-1.1-2.3-1.5-0.9-0.4-1.9-0.4-2.8-0.6-0.9-0.2-1.8-0.5-2.7-0.5-0.9 0-1.8 0.3-2.7 0.5-0.9 0.2-1.9 0.2-2.8 0.6-0.9 0.4-1.6 1-2.5 1.6-0.8 0.5-1.6 0.8-2.3 1.4l-228.3 221z" fill="#BFCBD9" p-id="1309"></path><path d="M496.2 192.2H522v497.1h-25.8z" fill="#BFCBD9" p-id="1310"></path><path d="M512.7 829.3m-20.3 0a20.3 20.3 0 1 0 40.6 0 20.3 20.3 0 1 0-40.6 0Z" fill="#BFCBD9" p-id="1311"></path></svg>